<svg width="51" height="51" viewBox="0 0 51 51" fill="none" xmlns="http://www.w3.org/2000/svg">
    <path d="M41.9581 26.9139L29.8267 32.5099L24.1792 14.9337L36.9713 10.972L41.9581 26.9139Z" fill="#CCB256"/>
    <path d="M40.1296 21.0269L37.8326 21.7457C32.0407 23.5583 25.8802 20.3207 24.072 14.5142C22.2637 8.7078 25.4933 2.53138 31.2852 0.718788L33.5822 0L40.1296 21.0269Z" fill="#F4E098"/>
    <path d="M50.7967 37.4387L43.4357 39.735C37.7073 41.5219 31.6136 38.3298 29.8254 32.6051L27.4302 24.9363L45.1634 19.4044L50.7967 37.4387Z" fill="#CCB256"/>
    <path d="M8.83862 24.086L20.9706 18.49L26.6175 36.0662L13.8254 40.0278L8.83862 24.086Z" fill="#CCB256"/>
    <path d="M10.6675 29.9731L12.9644 29.2543C18.7564 27.4417 24.9169 30.6793 26.7251 36.4857C28.5334 42.2922 25.3038 48.4686 19.5118 50.2812L17.2149 51L10.6675 29.9731Z" fill="#F4E098"/>
    <path d="M0 13.5613L7.361 11.2651C13.0894 9.47813 19.1831 12.6703 20.9713 18.3949L23.3665 26.0638L5.63332 31.5956L0 13.5613Z" fill="#CCB256"/>
</svg>