<svg width="127" height="25" viewBox="0 0 127 25" fill="none"
  xmlns="http://www.w3.org/2000/svg">
  <path fill-rule="evenodd" clip-rule="evenodd" d="M29.2646 0L41.6355 12.3491L29.2646 24.6981V18.0648H17.0858L29.2646 9.10341V0ZM29.9753 1.71353V9.46281L19.2507 17.3541H29.9753V22.9846L40.6296 12.3491L29.9753 1.71353Z" fill="#4E5299"/>
  <path fill-rule="evenodd" clip-rule="evenodd" d="M12.3916 0.000915527V6.63322H24.5403L12.3916 15.6746V24.6969L0 12.3489L12.3916 0.000915527ZM1.0068 12.3489L11.681 22.9855V15.3176L22.3951 7.34388H11.681V1.71232L1.0068 12.3489Z" fill="#8B8CFB"/>
  <path d="M58.229 9.83135V7.43542H49.6199V9.93287H54.5539L49.498 15.5572V18.0953H58.3102V15.5775H53.031L58.229 9.83135Z" fill="white" fill-opacity="0.9"/>
  <path d="M70.3506 7.43534H66.5943L62.8989 11.3947V2.39984H60.0156V18.0952H62.8989V15.2729L64.0968 14.014L66.9191 18.0952H70.4521L66.0867 11.9226L70.3506 7.43534Z" fill="white" fill-opacity="0.9"/>
  <path d="M78.8176 9.14093L76.6653 8.73484C75.5486 8.5115 75.0004 7.94297 75.0004 7.00897C75.0004 6.48105 75.2237 6.01405 75.6704 5.64857C76.1171 5.26278 76.7059 5.05974 77.3963 5.05974C78.2694 5.05974 78.9191 5.28309 79.3658 5.72979C79.8125 6.17648 80.0968 6.68409 80.1983 7.23231L82.8785 6.39984C82.777 5.93283 82.6145 5.46583 82.3709 5.03944C82.1475 4.61304 81.8227 4.18665 81.3963 3.78056C80.9699 3.35417 80.4216 3.0293 79.7313 2.78564C79.0409 2.54199 78.2491 2.42017 77.376 2.42017C75.8938 2.42017 74.6349 2.88717 73.5791 3.80086C72.5435 4.73487 72.0156 5.87192 72.0156 7.23231C72.0156 8.36936 72.3811 9.32368 73.0918 10.0952C73.8227 10.8668 74.7973 11.3744 76.0359 11.6384L78.1882 12.0648C78.777 12.1866 79.244 12.4099 79.5486 12.7348C79.8734 13.0597 80.0562 13.4252 80.0562 13.8922C80.0562 14.4607 79.8328 14.9074 79.3861 15.2526C78.9597 15.5977 78.3506 15.7805 77.5587 15.7805C76.5232 15.7805 75.7313 15.4962 75.1425 14.948C74.574 14.3998 74.2694 13.7094 74.1882 12.8973L71.4065 13.6282C71.4674 14.1967 71.6298 14.7653 71.8735 15.3135C72.1578 15.8414 72.5232 16.3693 73.0105 16.8566C73.4775 17.3236 74.107 17.7094 74.8989 18.014C75.6704 18.2982 76.5638 18.4404 77.5181 18.4404C79.2034 18.4404 80.5435 17.9734 81.5587 17.0393C82.5739 16.085 83.0815 14.9683 83.0815 13.7094C83.0815 12.5927 82.6957 11.6384 81.9445 10.8059C81.2338 9.95311 80.178 9.40489 78.8176 9.14093Z" fill="white" fill-opacity="0.9"/>
  <path d="M88.9698 13.6689L86.1272 7.43542H82.8988L87.4267 16.7552L84.9089 22.2983H87.9749L94.6754 7.43542H91.5891L88.9698 13.6689Z" fill="white" fill-opacity="0.9"/>
  <path d="M101.64 7.15112C101.01 7.15112 100.421 7.29325 99.853 7.55721C99.2845 7.84147 98.8581 8.22725 98.5535 8.75517V7.43538H95.7515V18.0952H98.6347V11.9633C98.6347 11.3338 98.8174 10.8059 99.1829 10.3795C99.5484 9.95313 100.036 9.75009 100.645 9.75009C101.315 9.75009 101.802 9.95312 102.127 10.3389C102.452 10.7247 102.635 11.2323 102.635 11.8821V18.0952H105.518V11.3744C105.518 10.1359 105.193 9.12065 104.523 8.34908C103.853 7.5572 102.899 7.15112 101.64 7.15112Z" fill="white" fill-opacity="0.9"/>
  <path d="M115.041 13.9735C114.899 14.4608 114.614 14.8872 114.208 15.2526C113.802 15.5978 113.254 15.7806 112.584 15.7806C111.812 15.7806 111.163 15.5166 110.635 14.9887C110.107 14.4405 109.863 13.7095 109.863 12.7755C109.863 11.8415 110.127 11.1308 110.635 10.5826C111.163 10.0547 111.792 9.79075 112.564 9.79075C113.782 9.79075 114.574 10.3999 114.919 11.5978L117.498 10.7247C117.254 9.72983 116.706 8.87704 115.833 8.18669C114.959 7.47604 113.863 7.13086 112.503 7.13086C110.939 7.13086 109.619 7.65878 108.564 8.73491C107.508 9.81105 106.98 11.1511 106.98 12.7755C106.98 14.3998 107.508 15.7399 108.584 16.8161C109.66 17.8922 111 18.4201 112.604 18.4201C113.924 18.4201 115.041 18.075 115.894 17.3643C116.767 16.6536 117.315 15.8212 117.579 14.8262L115.041 13.9735Z" fill="white" fill-opacity="0.9"/>
  <path d="M117.112 6.09536V0.978638H118.127V6.09536H117.112Z" fill="#8B8CFB"/>
  <path d="M119.183 1.95325V0.978638H120.239V1.95325H119.183ZM119.203 6.09536V2.48116H120.218V6.09536H119.203Z" fill="#8B8CFB"/>
  <path d="M120.706 3.25267V2.4608H123.122V3.25267H120.706ZM121.335 6.09529V1.46588H122.35V6.09529H121.335Z" fill="#8B8CFB"/>
  <path d="M125.376 6.17647C125.051 6.17647 124.766 6.11555 124.543 6.01403C124.32 5.91251 124.117 5.77038 123.975 5.58764C123.832 5.4049 123.731 5.22215 123.65 4.99881C123.589 4.77546 123.548 4.55211 123.548 4.30846C123.548 4.08511 123.589 3.84146 123.65 3.61811C123.711 3.39476 123.812 3.19171 123.954 3.00897C124.096 2.82623 124.279 2.6841 124.503 2.56227C124.726 2.46075 124.99 2.39984 125.315 2.39984C125.599 2.39984 125.843 2.44045 126.046 2.54197C126.249 2.6435 126.431 2.76532 126.574 2.94806C126.716 3.1105 126.817 3.31354 126.898 3.53689C126.959 3.76024 127 4.00389 127 4.28815C127 4.32876 127 4.38968 127 4.45059C127 4.5115 127 4.57242 126.98 4.65363H124.563C124.584 4.87698 124.685 5.03942 124.848 5.16125C125.01 5.26277 125.193 5.32368 125.437 5.32368C125.619 5.32368 125.802 5.28307 125.985 5.22216C126.167 5.16124 126.33 5.05972 126.452 4.9582L126.919 5.66886C126.736 5.79068 126.574 5.8922 126.411 5.97342C126.249 6.05464 126.107 6.11555 125.944 6.13586C125.761 6.15616 125.579 6.17647 125.376 6.17647ZM126.005 4.12572C126.005 4.08511 126.025 4.0445 126.025 4.00389C126.025 3.96328 126.046 3.92267 126.046 3.90237C126.046 3.80085 126.025 3.71963 125.985 3.63841C125.944 3.5572 125.904 3.49628 125.843 3.43537C125.782 3.37446 125.7 3.33384 125.619 3.29324C125.538 3.25263 125.437 3.25263 125.335 3.25263C125.173 3.25263 125.03 3.29324 124.909 3.35415C124.807 3.41507 124.706 3.49628 124.665 3.5978C124.604 3.69932 124.563 3.80085 124.563 3.90237H126.371L126.005 4.12572Z" fill="#8B8CFB"/>
</svg>
